<svg xmlns="http://www.w3.org/2000/svg" viewBox="0 0 640 640">
  <path fill="#ff3e00" d="M436 160c4-6 7-1-10 0-17 2-37 7-40 14-7 14-9 48-33 55-2 9 0 29 34 33s36-19 56-18 18-7 11-13-31-44-31-56 8-8 13-15M129 537s-11-28 20-43 60-3 65 7-9 53-63 54l-22-18"/>
  <path fill="#ff3e00" d="m548 203 1 8-1 9v4c0 1 2 2 1 3l-2 2-3 8v2l-2 6c0 1 0 4-2 4l-2 5h-1l-1 1-1 1-1 3a8 8 0 0 0-1 2l-2 6-2 1-1 2-1 2-4 10-1 2-1 4-4 8-1 1v1l-1 1-1 1-2 2-1 2-2 2-2 3-2 2h-2v-1l-1-1v-3l1-3v-4l1-2-1-4 2-7 1-6 2-5 2-5 1-4 1-2 2-4a184 184 0 0 1 2-4l1-3 1-2a94 94 0 0 0 2-4 162 162 0 0 1 4-7 425 425 0 0 1 5-8l4-6 4-7 1-1 3-5 1-1 1-1 2-3 1-1 2-4" opacity=".7"/>
  <path fill="#000" d="M294 58s6 33-48 51-129 32-184 98-65 175-28 246c38 72 129 161 295 161s296-126 296-214c0-46-25-35-34 7-8 39-81 184-263 184-183 0-276-111-288-206-11-95 15-176 111-226 96-49 157-29 143-101"/>
  <path fill="#000" d="M249 315s-11 50-64 74c-52 24-75 37-82 79 20-34 78-40 110-73s36-81 36-81m14-115s45 58 98 30c53-29 26-94 25-99-1-4 6 74-34 87s-89-18-89-18M145 547s28 2 49-22c21-23 9-60 44-73 34-13 57-5 57-5s-61 8-66 43-13 51-26 62c-14 11-31 13-31 13l-27-18z"/>
  <path fill="#000" d="M274 366s50-9 73-60c19-43 7-79 7-79l-26 4s11 30 2 58-26 59-56 77m272-117c-18 45-44 77-48 75-5-3 0-42 18-87s41-80 49-77c8 4-1 43-19 89m26-91c-20-11-45 30-66 79s-23 88-7 95c21 9 41-28 62-77s30-87 11-97"/>
  <path fill="#000" d="M199 403s13 39 78 31c61-8 87-31 124-54 27-17 25-10 28-9 4 1 19 10 34 9 1 8-7 1-10 9-2 5 12 28 33 25 34-6 24-20 31-36s11-24-22-47c-26-23-40-17-52-17s-45 17-68 13-36-12-36-12l-15 16s27 21 59 14c31-8 55-32 82-19 28 12 33 20 41 27 10 7 11 14 4 21-6 6 0 11-4 19-4 7-25 11-25 11s23-30-5-32c-20-2-32-28-61-14-40 20-98 55-138 59-39 4-53-8-63-32-12 10-15 18-15 18"/>
  <path fill="#000" d="M343 411s28 15 20 48-46 55-70 65c-24 11-42 26-24 35 15 7 23-12 45-15 21-4 40 5 42 17-9-5-16-5-16-5s8 5 9 13c0 9-1 4-6 4-13 1-14-10-25-9-28 3-29 14-44 16s-40-6-37-26c3-19 29-32 53-42s61-42 56-70-26-23-26-23l23-8zm71-236s11 6 19 36c5 11 12 20 18 22 5 3-3 5-7 4s-13-4-19 1-20 18-40 15c-20-4-37-16-37-16s8 33 52 31c31-2 24-18 45-21s19-14 14-23c-7-13-29-17-31-57-3-4-18 1-14 8m71 209c2 2-15 40-15 40s-3 9-12 5c-9-3-7-9-7-9l22-39 12 3m24-53-5 12-13-10 3-8 14 6z"/>
  <path fill="#000" d="M356 404c-2 9 29 62 51 59 21-3 25 3 18 7-6 4-18 6-16 12 1 6 6 12-5 10s-33-13-46-36l-6 18s43 44 86 25c-8-5-28-4-11-14s31-13 39 3c4-1 4-38-51-35-19-3-45-40-45-59-5 5-11 0-14 10m170-185s-11 33-7 60l7-60m11-19c-1-2-5 57-4 59s7-46 4-59m-146-33s47-4 39-23c-25-56-73-89-161-86 50-20 92-17 133 18 20 17 30 38 37 55 12 26 8 28-4 35-16 9-43 4-44 1"/>
  <path fill="#000" d="M396 174s13 9 23 2c5-5 8-8-5-7l-17-1c-11-2-10 1-1 6z"/>
  <g transform="scale(2.25) translate(10,78)">
    <path fill="#000" d="M91.8 15.6A36 36 0 0 0 43.6 5.2L16.1 22.8A31.3 31.3 0 0 0 1.9 43.9a32.7 32.7 0 0 0 3.3 21.3 33.6 33.6 0 0 0 1 37.2 36 36 0 0 0 48.2 10.4l27.5-17.5a31.3 31.3 0 0 0 14.2-21.1c1.3-7.3.2-14.8-3.3-21.3a33 33 0 0 0-1-37.3"/>
  <path fill="#fff" d="M40.9 103.9a21.8 21.8 0 0 1-23.4-8.7A20.3 20.3 0 0 1 14 79.9l.6-2.6.5-1.6 1.4 1c3.3 2.4 6.9 4.2 10.8 5.4l1 .3-.1 1a6.6 6.6 0 0 0 9.9 6.1L65.5 72a5.7 5.7 0 0 0 2.6-3.8c.3-1.6-.1-3.3-1-4.6a6.6 6.6 0 0 0-8.8-1.9l-10.5 6.7a21.8 21.8 0 0 1-29-6.3 20.2 20.2 0 0 1-3.4-15.3A19 19 0 0 1 24 34.1l27.5-17.5c1.7-1.1 3.6-1.9 5.6-2.5a21.8 21.8 0 0 1 23.4 8.7 20.3 20.3 0 0 1 2.8 17.9l-.5 1.6-1.4-1a36.5 36.5 0 0 0-10.8-5.4l-1-.3.1-1c.1-1.4-.3-2.9-1.1-4.1a6.6 6.6 0 0 0-8.8-1.9L32.4 46.1c-1.4.9-2.3 2.2-2.6 3.8s.1 3.3 1 4.6a6.6 6.6 0 0 0 8.8 1.9l10.5-6.7c1.7-1.1 3.6-1.9 5.6-2.5a21.8 21.8 0 0 1 23.4 8.7c3.2 4.4 4.4 9.9 3.5 15.3A19 19 0 0 1 74 83.9l-27.5 17.5a21.8 21.8 0 0 1-5.6 2.5"/>
  </g>
</svg>